<svg
	height="30px"
	viewBox="0 0 81.71 81.71"
	xmlns="http://www.w3.org/2000/svg"
>
	<path
		d="M15.1 47a7.55 7.55 0 11-7.55-7.55h7.55zM18.87 47A7.55 7.55 0 1134 47v18.85a7.55 7.55 0 01-15.09 0z"
		fill="#e01e5a"
	></path>
	<path
		d="M26.42 16.81A7.55 7.55 0 1134 9.26v7.55zM26.42 20.58a7.55 7.55 0 010 15.09H7.55a7.55 7.55 0 010-15.09z"
		fill="#36c5f0"
	></path>
	<path
		d="M56.59 28.13a7.55 7.55 0 117.55 7.54h-7.55zM52.82 28.13a7.55 7.55 0 01-15.09 0V9.26a7.55 7.55 0 0115.09 0z"
		fill="#2eb67d"
	></path>
	<path
		d="M45.28 58.3a7.55 7.55 0 11-7.55 7.55V58.3zM45.28 54.53a7.55 7.55 0 110-15.09h18.86a7.55 7.55 0 010 15.09z"
		fill="#ecb22e"
	></path>
	<path
		d="M15.09 47a7.55 7.55 0 11-7.55-7.55h7.55zM18.86 47A7.55 7.55 0 1134 47v18.85a7.55 7.55 0 01-15.09 0z"
		fill="#e01e5a"
	></path>
	<path
		d="M26.41 16.81A7.55 7.55 0 1134 9.26v7.55zM26.41 20.58a7.55 7.55 0 010 15.09H7.54a7.55 7.55 0 010-15.09z"
		fill="#36c5f0"
	></path>
	<path
		d="M56.58 28.13a7.55 7.55 0 117.55 7.54h-7.55zM52.81 28.13a7.55 7.55 0 01-15.09 0V9.26a7.55 7.55 0 0115.09 0z"
		fill="#2eb67d"
	></path>
	<path
		d="M45.27 58.3a7.55 7.55 0 11-7.55 7.55V58.3zM45.27 54.53a7.55 7.55 0 110-15.09h18.86a7.55 7.55 0 010 15.09z"
		fill="#ecb22e"
	></path>
</svg>